<svg xmlns="http://www.w3.org/2000/svg" xmlns:xlink="http://www.w3.org/1999/xlink" width="1040" height="711.3"><rect width="1040" height="711.3" rx="5" ry="5" class="a"/><svg y="0%" x="0%"><circle cx="20" cy="20" r="6" fill="#ff5f58"/><circle cx="40" cy="20" r="6" fill="#ffbd2e"/><circle cx="60" cy="20" r="6" fill="#18c132"/></svg><svg height="651.3" viewBox="0 0 100 65.13" width="1000" x="15" xmlns="http://www.w3.org/2000/svg" xmlns:xlink="http://www.w3.org/1999/xlink" y="50"><style>@keyframes i{0%{transform:translateX(0)}.04%{transform:translateX(-200px)}1.92%{transform:translateX(-300px)}5.44%{transform:translateX(-400px)}6.08%{transform:translateX(-600px)}6.1%{transform:translateX(-700px)}10.13%{transform:translateX(-800px)}36.47%{transform:translateX(-900px)}42.37%{transform:translateX(-1000px)}43.33%{transform:translateX(-1100px)}44%{transform:translateX(-1200px)}45.72%{transform:translateX(-1300px)}49.81%{transform:translateX(-1400px)}60.62%{transform:translateX(-1500px)}63.21%{transform:translateX(-1600px)}65.84%{transform:translateX(-1700px)}82.9%{transform:translateX(-1800px)}82.91%{transform:translateX(-2000px)}to{transform:translateX(-2200px)}}.a{fill:#282d35}.f,.g{fill:#b9c0cb;white-space:pre}.g{fill:#a8cc8c;font-weight:700}</style><g font-family="Monaco,Consolas,Menlo,'Bitstream Vera Sans Mono','Powerline Symbols',monospace" font-size="1.67"><defs><symbol id="1"><text y="1.67" class="f">[evan@beaver</text><text x="13.026" y="1.67" class="f">download-weverse-rs]$</text></symbol><symbol id="2"><text y="1.67" class="f">[evan@beaver</text><text x="13.026" y="1.67" class="f">download-weverse-rs]$</text><text x="35.07" y="1.67" class="f">cargo</text><text x="41.082" y="1.67" class="f">r</text><text x="43.086" y="1.67" class="f">--release</text></symbol><symbol id="3"><text x="4.008" y="1.67" class="g">Finished</text><text x="13.026" y="1.67" class="f">release</text><text x="21.042" y="1.67" class="f">[optimized]</text><text x="33.066" y="1.67" class="f">target(s)</text><text x="43.086" y="1.67" class="f">in</text><text x="46.092" y="1.67" class="f">0.03s</text></symbol><symbol id="4"><text x="5.01" y="1.67" class="g">Running</text><text x="13.026" y="1.67" class="f">`target/release/download-weverse-rs`</text></symbol><symbol id="5"><text y="1.67" class="f">Getting</text><text x="8.016" y="1.67" class="f">artist</text><text x="15.03" y="1.67" class="f">ids...</text></symbol><symbol id="6"><text y="1.67" class="f">Getting</text><text x="8.016" y="1.67" class="f">all</text><text x="12.024" y="1.67" class="f">post</text><text x="17.034" y="1.67" class="f">info...</text></symbol><symbol id="7"><text y="1.67" class="f">Downloaded</text><text x="11.022" y="1.67" class="f">https://weverse.io/dreamcatcher/artist/1651668451883611</text></symbol><symbol id="8"><text y="1.67" class="f">Downloaded</text><text x="11.022" y="1.67" class="f">https://weverse.io/dreamcatcher/artist/1651489108261862</text></symbol><symbol id="9"><text y="1.67" class="f">Downloaded</text><text x="11.022" y="1.67" class="f">https://weverse.io/dreamcatcher/artist/1651588654197954</text></symbol><symbol id="10"><text y="1.67" class="f">Downloaded</text><text x="11.022" y="1.67" class="f">https://weverse.io/dreamcatcher/artist/1651482111427451</text></symbol><symbol id="11"><text y="1.67" class="f">Downloaded</text><text x="11.022" y="1.67" class="f">https://weverse.io/dreamcatcher/artist/1651474072164334</text></symbol><symbol id="12"><text y="1.67" class="f">Downloaded</text><text x="11.022" y="1.67" class="f">https://weverse.io/dreamcatcher/artist/1651313989594994</text></symbol><symbol id="13"><text y="1.67" class="f">Downloaded</text><text x="11.022" y="1.67" class="f">https://weverse.io/dreamcatcher/artist/1651498814337341</text></symbol><symbol id="14"><text y="1.67" class="f">Downloaded</text><text x="11.022" y="1.67" class="f">https://weverse.io/dreamcatcher/artist/1651365072715529</text></symbol><symbol id="15"><text y="1.67" class="f">Downloaded</text><text x="11.022" y="1.67" class="f">https://weverse.io/dreamcatcher/artist/1651291740059941</text></symbol><symbol id="16"><text y="1.67" class="f">Downloaded</text><text x="11.022" y="1.67" class="f">https://weverse.io/dreamcatcher/artist/1651590502149646</text></symbol><symbol id="a"><path fill="transparent" d="M0 0h100v30H0z"/></symbol></defs><path class="a" d="M0 0h100v65.13H0z"/><g style="animation-duration:18.379728s;animation-iteration-count:infinite;animation-name:i;animation-timing-function:steps(1,end)"><svg width="2300"><svg><use xlink:href="#a"/></svg><svg x="100"><use xlink:href="#a"/></svg><svg x="200"><use xlink:href="#a"/><use xlink:href="#1"/></svg><svg x="300"><use xlink:href="#a"/><use xlink:href="#2"/></svg><svg x="400"><use xlink:href="#a"/><use xlink:href="#2"/></svg><svg x="500"><use xlink:href="#a"/><use xlink:href="#2"/><use xlink:href="#3" y="2.171"/></svg><svg x="600"><use xlink:href="#a"/><use xlink:href="#2"/><use xlink:href="#3" y="2.171"/><use xlink:href="#4" y="4.342"/></svg><svg x="700"><use xlink:href="#a"/><use xlink:href="#2"/><use xlink:href="#3" y="2.171"/><use xlink:href="#4" y="4.342"/><use xlink:href="#5" y="6.513"/></svg><svg x="800"><use xlink:href="#a"/><use xlink:href="#2"/><use xlink:href="#3" y="2.171"/><use xlink:href="#4" y="4.342"/><use xlink:href="#5" y="6.513"/><use xlink:href="#6" y="8.684"/></svg><svg x="900"><use xlink:href="#a"/><use xlink:href="#2"/><use xlink:href="#3" y="2.171"/><use xlink:href="#4" y="4.342"/><use xlink:href="#5" y="6.513"/><use xlink:href="#6" y="8.684"/><use xlink:href="#7" y="10.855"/></svg><svg x="1000"><use xlink:href="#a"/><use xlink:href="#2"/><use xlink:href="#3" y="2.171"/><use xlink:href="#4" y="4.342"/><use xlink:href="#5" y="6.513"/><use xlink:href="#6" y="8.684"/><use xlink:href="#7" y="10.855"/><use xlink:href="#8" y="13.026"/></svg><svg x="1100"><use xlink:href="#a"/><use xlink:href="#2"/><use xlink:href="#3" y="2.171"/><use xlink:href="#4" y="4.342"/><use xlink:href="#5" y="6.513"/><use xlink:href="#6" y="8.684"/><use xlink:href="#7" y="10.855"/><use xlink:href="#8" y="13.026"/><use xlink:href="#9" y="15.197"/></svg><svg x="1200"><use xlink:href="#a"/><use xlink:href="#2"/><use xlink:href="#3" y="2.171"/><use xlink:href="#4" y="4.342"/><use xlink:href="#5" y="6.513"/><use xlink:href="#6" y="8.684"/><use xlink:href="#7" y="10.855"/><use xlink:href="#8" y="13.026"/><use xlink:href="#9" y="15.197"/><use xlink:href="#10" y="17.368"/></svg><svg x="1300"><use xlink:href="#a"/><use xlink:href="#2"/><use xlink:href="#3" y="2.171"/><use xlink:href="#4" y="4.342"/><use xlink:href="#5" y="6.513"/><use xlink:href="#6" y="8.684"/><use xlink:href="#7" y="10.855"/><use xlink:href="#8" y="13.026"/><use xlink:href="#9" y="15.197"/><use xlink:href="#10" y="17.368"/><use xlink:href="#11" y="19.539"/></svg><svg x="1400"><use xlink:href="#a"/><use xlink:href="#2"/><use xlink:href="#3" y="2.171"/><use xlink:href="#4" y="4.342"/><use xlink:href="#5" y="6.513"/><use xlink:href="#6" y="8.684"/><use xlink:href="#7" y="10.855"/><use xlink:href="#8" y="13.026"/><use xlink:href="#9" y="15.197"/><use xlink:href="#10" y="17.368"/><use xlink:href="#11" y="19.539"/><use xlink:href="#12" y="21.71"/></svg><svg x="1500"><use xlink:href="#a"/><use xlink:href="#2"/><use xlink:href="#3" y="2.171"/><use xlink:href="#4" y="4.342"/><use xlink:href="#5" y="6.513"/><use xlink:href="#6" y="8.684"/><use xlink:href="#7" y="10.855"/><use xlink:href="#8" y="13.026"/><use xlink:href="#9" y="15.197"/><use xlink:href="#10" y="17.368"/><use xlink:href="#11" y="19.539"/><use xlink:href="#12" y="21.71"/><use xlink:href="#13" y="23.881"/></svg><svg x="1600"><use xlink:href="#a"/><use xlink:href="#2"/><use xlink:href="#3" y="2.171"/><use xlink:href="#4" y="4.342"/><use xlink:href="#5" y="6.513"/><use xlink:href="#6" y="8.684"/><use xlink:href="#7" y="10.855"/><use xlink:href="#8" y="13.026"/><use xlink:href="#9" y="15.197"/><use xlink:href="#10" y="17.368"/><use xlink:href="#11" y="19.539"/><use xlink:href="#12" y="21.71"/><use xlink:href="#13" y="23.881"/><use xlink:href="#14" y="26.052"/></svg><svg x="1700"><use xlink:href="#a"/><use xlink:href="#2"/><use xlink:href="#3" y="2.171"/><use xlink:href="#4" y="4.342"/><use xlink:href="#5" y="6.513"/><use xlink:href="#6" y="8.684"/><use xlink:href="#7" y="10.855"/><use xlink:href="#8" y="13.026"/><use xlink:href="#9" y="15.197"/><use xlink:href="#10" y="17.368"/><use xlink:href="#11" y="19.539"/><use xlink:href="#12" y="21.71"/><use xlink:href="#13" y="23.881"/><use xlink:href="#14" y="26.052"/><use xlink:href="#15" y="28.223"/></svg><svg x="1800"><use xlink:href="#a"/><use xlink:href="#2"/><use xlink:href="#3" y="2.171"/><use xlink:href="#4" y="4.342"/><use xlink:href="#5" y="6.513"/><use xlink:href="#6" y="8.684"/><use xlink:href="#7" y="10.855"/><use xlink:href="#8" y="13.026"/><use xlink:href="#9" y="15.197"/><use xlink:href="#10" y="17.368"/><use xlink:href="#11" y="19.539"/><use xlink:href="#12" y="21.71"/><use xlink:href="#13" y="23.881"/><use xlink:href="#14" y="26.052"/><use xlink:href="#15" y="28.223"/><use xlink:href="#16" y="30.394"/></svg><svg x="1900"><use xlink:href="#a"/><use xlink:href="#2"/><use xlink:href="#3" y="2.171"/><use xlink:href="#4" y="4.342"/><use xlink:href="#5" y="6.513"/><use xlink:href="#6" y="8.684"/><use xlink:href="#7" y="10.855"/><use xlink:href="#8" y="13.026"/><use xlink:href="#9" y="15.197"/><use xlink:href="#10" y="17.368"/><use xlink:href="#11" y="19.539"/><use xlink:href="#12" y="21.71"/><use xlink:href="#13" y="23.881"/><use xlink:href="#14" y="26.052"/><use xlink:href="#15" y="28.223"/><use xlink:href="#16" y="30.394"/></svg><svg x="2000"><use xlink:href="#a"/><use xlink:href="#2"/><use xlink:href="#3" y="2.171"/><use xlink:href="#4" y="4.342"/><use xlink:href="#5" y="6.513"/><use xlink:href="#6" y="8.684"/><use xlink:href="#7" y="10.855"/><use xlink:href="#8" y="13.026"/><use xlink:href="#9" y="15.197"/><use xlink:href="#10" y="17.368"/><use xlink:href="#11" y="19.539"/><use xlink:href="#12" y="21.71"/><use xlink:href="#13" y="23.881"/><use xlink:href="#14" y="26.052"/><use xlink:href="#15" y="28.223"/><use xlink:href="#16" y="30.394"/><use xlink:href="#1" y="32.565"/></svg><svg x="2100"><use xlink:href="#a"/><use xlink:href="#2"/><use xlink:href="#3" y="2.171"/><use xlink:href="#4" y="4.342"/><use xlink:href="#5" y="6.513"/><use xlink:href="#6" y="8.684"/><use xlink:href="#7" y="10.855"/><use xlink:href="#8" y="13.026"/><use xlink:href="#9" y="15.197"/><use xlink:href="#10" y="17.368"/><use xlink:href="#11" y="19.539"/><use xlink:href="#12" y="21.71"/><use xlink:href="#13" y="23.881"/><use xlink:href="#14" y="26.052"/><use xlink:href="#15" y="28.223"/><use xlink:href="#16" y="30.394"/><use xlink:href="#1" y="32.565"/></svg><svg x="2200"><use xlink:href="#a"/><use xlink:href="#2"/><use xlink:href="#3" y="2.171"/><use xlink:href="#4" y="4.342"/><use xlink:href="#5" y="6.513"/><use xlink:href="#6" y="8.684"/><use xlink:href="#7" y="10.855"/><use xlink:href="#8" y="13.026"/><use xlink:href="#9" y="15.197"/><use xlink:href="#10" y="17.368"/><use xlink:href="#11" y="19.539"/><use xlink:href="#12" y="21.71"/><use xlink:href="#13" y="23.881"/><use xlink:href="#14" y="26.052"/><use xlink:href="#15" y="28.223"/><use xlink:href="#16" y="30.394"/><use xlink:href="#1" y="32.565"/><text y="36.406" class="f">exit</text></svg></svg></g></g></svg></svg>